HIERARCHY
ROOT Hips
{
 OFFSET 0.000000 0.000000 0.000000
 CHANNELS 6 Xposition Yposition Zposition Yrotation Xrotation Zrotation
 JOINT Chest
 {
  OFFSET 0.000000 9.585900 0.002600
  CHANNELS 3 Yrotation Xrotation Zrotation
  JOINT Chest2
  {
   OFFSET 0.000000 9.601200 -0.005300
   CHANNELS 3 Yrotation Xrotation Zrotation
   JOINT Chest3
   {
    OFFSET 0.000000 9.561800 0.000000
    CHANNELS 3 Yrotation Xrotation Zrotation
    JOINT Chest4
    {
     OFFSET 0.000000 9.552100 0.000000
     CHANNELS 3 Yrotation Xrotation Zrotation
     JOINT Neck
     {
      OFFSET 0.000000 14.453000 0.000000
      CHANNELS 3 Yrotation Xrotation Zrotation
      JOINT Head
      {
       OFFSET 0.000000 8.936500 -0.011300
       CHANNELS 3 Yrotation Xrotation Zrotation
       End Site
       {
        OFFSET 0.000000 17.073600 -0.006000
       }
      }
     }
     JOINT RightCollar
     {
      OFFSET -2.921100 9.558500 0.000000
      CHANNELS 3 Yrotation Xrotation Zrotation
      JOINT RightShoulder
      {
       OFFSET -13.519700 0.000000 0.000000
       CHANNELS 3 Yrotation Xrotation Zrotation
       JOINT RightElbow
       {
        OFFSET 0.000000 -29.696600 0.000000
        CHANNELS 3 Yrotation Xrotation Zrotation
        JOINT RightWrist
        {
         OFFSET 0.000000 -24.004700 0.000000
         CHANNELS 3 Yrotation Xrotation Zrotation
         End Site
         {
          OFFSET 0.000000 -17.728500 0.000000
         }
        }
       }
      }
     }
     JOINT LeftCollar
     {
      OFFSET 2.921100 9.558500 0.000000
      CHANNELS 3 Yrotation Xrotation Zrotation
      JOINT LeftShoulder
      {
       OFFSET 13.519700 0.000000 0.000000
       CHANNELS 3 Yrotation Xrotation Zrotation
       JOINT LeftElbow
       {
        OFFSET 0.000000 -29.696600 0.000000
        CHANNELS 3 Yrotation Xrotation Zrotation
        JOINT LeftWrist
        {
         OFFSET 0.000000 -24.004700 0.000000
         CHANNELS 3 Yrotation Xrotation Zrotation
         End Site
         {
          OFFSET 0.000000 -17.728500 0.000000
         }
        }
       }
      }
     }
    }
   }
  }
 }
 JOINT RightHip
 {
  OFFSET -7.771700 -0.012900 -0.001300
  CHANNELS 3 Yrotation Xrotation Zrotation
  JOINT RightKnee
  {
   OFFSET 0.000000 -40.869800 0.001200
   CHANNELS 3 Yrotation Xrotation Zrotation
   JOINT RightAnkle
   {
    OFFSET 0.000000 -39.717900 0.002100
    CHANNELS 3 Yrotation Xrotation Zrotation
    JOINT RightToe
    {
     OFFSET 0.000000 -4.965400 11.033500
     CHANNELS 3 Yrotation Xrotation Zrotation
     End Site
     {
      OFFSET 0.000000 -1.423100 5.872300
     }
    }
   }
  }
 }
 JOINT LeftHip
 {
  OFFSET 7.771700 -0.012900 -0.001300
  CHANNELS 3 Yrotation Xrotation Zrotation
  JOINT LeftKnee
  {
   OFFSET 0.000000 -40.869800 0.001200
   CHANNELS 3 Yrotation Xrotation Zrotation
   JOINT LeftAnkle
   {
    OFFSET 0.000000 -39.717900 0.002100
    CHANNELS 3 Yrotation Xrotation Zrotation
    JOINT LeftToe
    {
     OFFSET 0.000000 -4.965400 11.033500
     CHANNELS 3 Yrotation Xrotation Zrotation
     End Site
     {
      OFFSET 0.000000 -1.423100 5.872300
     }
    }
   }
  }
 }
}
MOTION
Frames: 13
Frame Time: 0.008333
0.000000 85.388000 0.000000 0.000000 -5.767877 0.000000 0.000000 11.653817 0.000000 0.000000 -5.885947 0.000000 0.000000 -0.000000 0.000000 0.000000 -0.000000 0.000000 0.000000 12.528835 0.000000 0.000000 0.711642 0.000000 0.000000 -0.000000 0.000000 0.000000 0.000000 -90.000000 0.000000 -2.309062 0.000000 0.000000 2.309062 0.000000 0.000000 -0.000000 0.000000 0.000000 -0.000000 90.000000 0.000000 -2.309062 0.000000 0.000000 2.309062 0.000000 0.000000 8.520406 0.000000 0.000000 1.905762 0.000000 -0.000000 -4.658285 0.000000 0.000000 -0.000000 0.000000 0.000000 8.520406 0.000000 0.000000 1.905762 0.000000 -0.000000 -4.658285 0.000000 0.000000 -0.000000 0.000000
-254.738411 61.607025 -83.004362 165.536355 -7.979072 3.639956 1.335257 16.645357 2.557228 0.115503 1.717533 0.267437 0.197295 2.865526 0.448407 1.271095 14.638609 2.443748 4.197695 11.783458 -1.965477 4.967047 -13.251451 -3.089409 6.783804 -2.581506 -10.928216 18.701730 -4.784356 -26.907586 39.979980 -62.006068 -18.612967 0.161595 2.409603 -61.801739 -11.932972 -12.008341 0.675061 -22.141527 -5.532564 20.472609 -76.501562 -43.745514 48.738300 0.151943 -15.075039 49.188196 -3.055949 -59.993344 2.254426 -32.805184 72.022383 -32.368105 -1.217193 -9.730903 -1.488216 -0.139183 -0.155916 -0.051193 21.743190 -57.072839 -18.538334 27.232002 64.915293 29.165071 -14.742833 -17.077065 2.721179 0.231174 0.177497 0.150958
-254.733890 61.606750 -83.003869 165.507981 -8.047308 3.636106 1.360651 16.594045 2.559871 0.116735 1.707177 0.266027 0.199262 2.848975 0.446165 1.283658 14.600089 2.440488 4.215169 11.825396 -1.972469 4.987174 -13.207172 -3.100797 6.791302 -2.581286 -10.878632 18.742808 -4.821254 -26.881999 39.672391 -61.816518 -18.329159 0.183493 2.384132 -61.675361 -11.905134 -11.990300 0.623468 -22.152908 -5.586263 20.401112 -76.279709 -43.575121 48.477011 0.141329 -15.124660 49.030320 -3.045777 -59.927487 2.252519 -32.760026 72.036522 -32.307048 -1.215433 -9.729831 -1.501263 -0.138550 -0.160685 -0.057543 21.691698 -57.011727 -18.405612 27.182307 64.931014 29.071705 -14.852864 -17.076368 2.736497 0.247905 0.185575 0.166614
-254.727274 61.605840 -82.998009 165.482090 -8.100417 3.616981 1.388361 16.587148 2.581821 0.117059 1.634260 0.261571 0.200443 2.831999 0.443889 1.292205 14.560618 2.436681 4.236660 11.871759 -1.979863 4.979186 -13.115255 -3.076422 6.804492 -2.580223 -10.828871 18.781029 -4.857972 -26.859843 39.383742 -61.622233 -18.057887 0.200434 2.338366 -61.557390 -11.867854 -11.971789 0.567592 -22.151025 -5.642370 20.330103 -76.074255 -43.406323 48.218814 0.130414 -15.173295 48.868127 -3.071168 -59.880040 2.281604 -32.706168 72.054060 -32.234036 -1.201472 -9.719123 -1.515558 -0.146672 -0.176411 -0.069654 21.629755 -56.970048 -18.276063 27.160131 64.937059 29.006598 -14.843366 -17.075377 2.738770 0.247605 0.215577 0.158753
-254.727189 61.605523 -82.992378 165.459292 -8.157202 3.640837 1.392238 16.488610 2.552190 0.117183 1.654643 0.261443 0.200751 2.814431 0.441476 1.296256 14.519869 2.431917 4.263467 11.922799 -1.987516 5.026000 -13.083900 -3.109708 6.822954 -2.577386 -10.775659 18.815464 -4.893624 -26.840753 39.116174 -61.439641 -17.779395 0.213639 2.335920 -61.442025 -11.823856 -11.950792 0.510027 -22.137908 -5.703884 20.256604 -75.880398 -43.236206 47.963729 0.121706 -15.219364 48.703295 -3.033406 -59.834934 2.223793 -32.638785 72.079170 -32.158130 -1.178433 -9.714499 -1.514774 -0.160904 -0.186194 -0.089132 21.629765 -56.909341 -18.223121 27.132889 64.938092 28.946186 -14.907054 -17.036522 2.735303 0.283466 0.194316 0.181115
-254.725377 61.605831 -82.987675 165.442908 -8.232704 3.660109 1.384823 16.405201 2.527151 0.117473 1.674763 0.261582 0.200541 2.796954 0.439035 1.297633 14.479390 2.426962 4.294587 11.975935 -1.998424 5.078558 -13.048038 -3.146882 6.843566 -2.572967 -10.723063 18.844191 -4.930800 -26.821966 38.862474 -61.262387 -17.509543 0.220293 2.392391 -61.289462 -11.771905 -11.928745 0.448635 -22.121919 -5.772176 20.179547 -75.688123 -43.065082 47.707980 0.112479 -15.260499 48.539382 -3.007776 -59.767780 2.171413 -32.570389 72.102834 -32.079630 -1.158222 -9.713652 -1.509812 -0.177344 -0.193854 -0.111390 21.610758 -56.831266 -18.163436 27.117998 64.929996 28.901299 -14.929243 -16.993910 2.738174 0.323842 0.171441 0.191690
-254.722174 61.606281 -82.980068 165.429538 -8.302754 3.671102 1.373235 16.344855 2.513994 0.117261 1.664374 0.260174 0.200195 2.780261 0.436768 1.298329 14.440550 2.422593 4.326464 12.026642 -2.013773 5.116795 -12.994260 -3.170916 6.866065 -2.569027 -10.675150 18.865005 -4.971672 -26.803569 38.615389 -61.087894 -17.245817 0.241177 2.392229 -61.157877 -11.710281 -11.910941 0.380962 -22.113292 -5.841294 20.101173 -75.492923 -42.895841 47.453131 0.098828 -15.295377 48.374645 -2.988854 -59.701691 2.136907 -32.543439 72.107258 -32.026303 -1.160079 -9.711829 -1.522593 -0.163864 -0.197319 -0.119258 21.588398 -56.761137 -18.113939 27.132448 64.910694 28.892122 -14.936477 -16.948847 2.750350 0.268249 0.183733 0.159209
-254.718776 61.607332 -82.971848 165.400920 -8.377355 3.686557 1.372027 16.291524 2.499591 0.116943 1.654168 0.258961 0.199695 2.763949 0.434788 1.298171 14.402277 2.419297 4.357302 12.073064 -2.033080 5.154899 -12.944906 -3.199078 6.888902 -2.568373 -10.630774 18.879974 -5.015206 -26.785146 38.370775 -60.912984 -16.984816 0.271642 2.365015 -61.032468 -11.643019 -11.898644 0.308728 -22.111564 -5.907833 20.021224 -75.292927 -42.726577 47.200167 0.081755 -15.328949 48.207060 -2.977297 -59.631954 2.095641 -32.441331 72.125771 -31.899954 -1.128008 -9.703863 -1.540007 -0.179444 -0.206302 -0.120622 21.572937 -56.684848 -18.036474 27.114839 64.898749 28.834181 -14.937314 -16.890466 2.749464 0.302632 0.167614 0.169091
-254.711777 61.609672 -82.967999 165.374733 -8.491746 3.691561 1.365795 16.278742 2.496688 0.116512 1.643960 0.257887 0.198944 2.747659 0.433096 1.296983 14.363847 2.417144 4.389401 12.116930 -2.057475 5.195854 -12.898056 -3.233265 6.912872 -2.568844 -10.589776 18.889268 -5.062263 -26.762913 38.133377 -60.738527 -16.728720 0.295022 2.374988 -60.881225 -11.573840 -11.888143 0.234768 -22.110435 -5.973917 19.937599 -75.088202 -42.553907 46.948744 0.064944 -15.366516 48.037496 -2.972853 -59.518282 2.074482 -32.366514 72.133877 -31.794007 -1.102972 -9.661307 -1.572311 -0.192634 -0.245515 -0.116622 21.510523 -56.568225 -17.901867 27.075975 64.885268 28.748170 -14.962698 -16.881621 2.737655 0.387639 0.203821 0.206845
-254.703929 61.611546 -82.957375 165.328104 -8.575000 3.688635 1.382485 16.234801 2.504057 0.115938 1.633845 0.256868 0.198027 2.731486 0.431587 1.294905 14.325613 2.415774 4.423200 12.159786 -2.086933 5.240132 -12.852064 -3.273399 6.937691 -2.568331 -10.550595 18.892293 -5.112019 -26.735090 37.906826 -60.565729 -16.481903 0.303641 2.444254 -60.694226 -11.504417 -11.876040 0.160373 -22.108888 -6.040449 19.851002 -74.881745 -42.375386 46.702669 0.069711 -15.457724 47.888404 -2.960810 -59.434042 2.079378 -32.318432 72.135416 -31.713710 -1.124951 -9.684070 -1.596057 -0.155002 -0.218183 -0.113922 21.483898 -56.488912 -17.802871 27.077765 64.865322 28.723143 -14.901289 -16.795238 2.748367 0.305219 0.162964 0.173403
-254.693462 61.613543 -82.944696 165.287311 -8.659342 3.670936 1.398328 16.190070 2.524970 0.124873 1.694850 0.256398 0.187677 2.644522 0.429991 1.292048 14.287710 2.415740 4.456895 12.202010 -2.119389 5.285122 -12.806684 -3.316787 6.956897 -2.569503 -10.509174 18.890094 -5.161982 -26.703268 37.690538 -60.393042 -16.246612 0.333839 2.459685 -60.529342 -11.437183 -11.861249 0.085446 -22.106183 -6.107814 19.763750 -74.678709 -42.191285 46.464780 0.049738 -15.477071 47.691358 -3.002113 -59.350851 2.108426 -32.211656 72.140713 -31.538573 -1.123671 -9.623197 -1.664236 -0.124296 -0.266113 -0.120916 21.397099 -56.416313 -17.602812 26.979398 64.876954 28.573680 -15.036702 -16.820068 2.742156 0.357148 0.236889 0.207056
-254.686052 61.615840 -82.931270 165.242179 -8.743742 3.675098 1.413198 16.145453 2.522870 0.119288 1.649777 0.255959 0.191651 2.663763 0.428499 1.290186 14.249619 2.416443 4.489423 12.245353 -2.152582 5.329027 -12.760062 -3.360771 6.967509 -2.571566 -10.463248 18.882083 -5.211463 -26.670899 37.484219 -60.223949 -16.022530 0.369575 2.476447 -60.350792 -11.372562 -11.844190 0.010389 -22.100643 -6.176260 19.676931 -74.480484 -42.004784 46.233041 0.026431 -15.493736 47.483378 -3.004872 -59.267775 2.100225 -32.103720 72.147781 -31.382317 -1.125294 -9.605830 -1.712339 -0.101474 -0.273931 -0.116523 21.373011 -56.336152 -17.511484 26.956102 64.871180 28.533228 -15.035434 -16.787453 2.744227 0.288359 0.238913 0.187701
-254.680728 61.617803 -82.914768 165.198665 -8.816676 3.691348 1.422482 16.087987 2.508042 0.114283 1.604058 0.254496 0.195386 2.683647 0.427756 1.289272 14.211359 2.416304 4.520968 12.292182 -2.185563 5.371741 -12.709695 -3.404192 6.974102 -2.571431 -10.414747 18.868886 -5.260940 -26.639086 37.290131 -60.061360 -15.811597 0.406221 2.499529 -60.162982 -11.307895 -11.825271 -0.063902 -22.093221 -6.244973 19.588676 -74.275750 -41.813262 45.998619 0.010410 -15.519843 47.290310 -2.991684 -59.198389 2.077118 -32.010366 72.153549 -31.253128 -1.129099 -9.627613 -1.749472 -0.075993 -0.242751 -0.111234 21.372539 -56.262463 -17.445512 26.937875 64.854436 28.493213 -15.041545 -16.701624 2.757921 0.252186 0.180635 0.166847
